<svg width="51" height="60" viewBox="0 0 51 60" fill="none" xmlns="http://www.w3.org/2000/svg">
<path d="M46.3496 48.2953C47.7285 45.9028 46.9069 42.8455 44.5144 41.4666C42.1218 40.0877 39.0645 40.9093 37.6856 43.3018L46.3496 48.2953ZM8.7942 45.7986L4.54517 48.434L8.7942 45.7986ZM34.4278 19.9192L30.1601 22.5243L34.4278 19.9192ZM27.8346 38.6949L24.8174 34.7078L27.8346 38.6949ZM37.6856 43.3018C35.3117 47.4208 30.6901 49.7107 25.5861 49.6992C20.4771 49.6876 15.6461 47.3596 13.0432 43.1631L4.54517 48.434C9.26644 56.0459 17.6102 59.6811 25.5635 59.6991C33.5217 59.7171 41.8498 56.1029 46.3496 48.2953L37.6856 43.3018ZM13.0432 43.1631C10.1639 38.5208 9.79475 34.5404 10.5372 31.3652C11.3039 28.0865 13.3746 25.1812 16.1526 23.0628C18.9621 20.9205 22.1704 19.8313 24.8151 19.8329C27.3276 19.8345 29.085 20.763 30.1601 22.5243L38.6955 17.314C35.4674 12.0257 30.1147 9.83618 24.8212 9.83295C19.6599 9.8298 14.3664 11.8493 10.089 15.1109C5.78024 18.3965 2.17906 23.1904 0.799912 29.0883C-0.603466 35.0897 0.407532 41.7632 4.54517 48.434L13.0432 43.1631ZM30.1601 22.5243C30.6951 23.4008 30.977 25.1677 30.0006 27.7981C29.057 30.34 27.1763 32.9228 24.8174 34.7078L30.8518 42.6819C34.7235 39.752 37.7665 35.6125 39.3755 31.2781C40.9516 27.0322 41.4148 21.7688 38.6955 17.314L30.1601 22.5243ZM24.8174 34.7078C23.7035 35.5508 21.7868 36.4857 19.4918 37.0928C17.2011 37.6987 14.9882 37.8574 13.3088 37.5634C11.6763 37.2776 11.0463 36.6869 10.7596 36.1742C10.4124 35.5536 9.87392 33.8085 10.968 29.8839L1.33524 27.1987C-0.128417 32.4492 -0.111483 37.2239 2.03219 41.0561C4.23626 44.9964 8.03256 46.7917 11.5842 47.4135C15.0888 48.0271 18.8177 47.6151 22.049 46.7603C25.2759 45.9067 28.4612 44.491 30.8518 42.6819L24.8174 34.7078Z" fill="#E56352"/>
<path d="M37.7732 7.69983C38.9351 10.6096 37.7732 16.5019 37.7732 16.5019C37.7732 16.5019 31.69 14.4862 31.1009 9.10137C30.665 5.11651 26.4312 0.0108586 26.4312 0.0108586C26.4312 0.0108586 35.6208 2.30968 37.7732 7.69983Z" fill="#358157"/>
<path d="M44.0203 18.1056C40.8681 16.3884 38.6396 16.8788 38.6396 16.8788C38.6396 16.8788 39.9471 21.0336 43.0279 21.5671C46.1088 22.1007 48.3834 21.5671 48.3834 21.5671C48.3834 21.5671 45.277 18.7903 44.0203 18.1056Z" fill="#358157" stroke="#358157" stroke-width="2"/>
</svg>
