<svg width="330" height="101" viewBox="0 0 330 101" fill="none" xmlns="http://www.w3.org/2000/svg">
<rect x="320" y="25.1504" width="10" height="50" rx="5" fill="#FFFBF3"/>
<circle cx="325" cy="10.1504" r="5" fill="#FFFBF3"/>
<rect x="300" y="25.1504" width="10" height="50" rx="5" fill="#FFFBF3"/>
<circle cx="305" cy="10.1504" r="5" fill="#FFFBF3"/>
<path fill-rule="evenodd" clip-rule="evenodd" d="M285 65.0024C288.14 60.8237 290 55.6291 290 50C290 36.1929 278.807 25 265 25C251.193 25 240 36.1929 240 50C240 55.6291 241.86 60.8237 245 65.0024V50H250.001C250.081 41.785 256.766 35.1504 265 35.1504C273.234 35.1504 279.919 41.785 279.999 50H285V65.0024Z" fill="#FFFBF3"/>
<rect x="240" width="10" height="75" rx="5" fill="#FFFBF3"/>
<rect x="280" y="46.1504" width="10" height="29" rx="5" fill="#FFFBF3"/>
<path fill-rule="evenodd" clip-rule="evenodd" d="M226.011 63.5537C221.558 70.4412 213.812 74.9999 205 74.9999C191.193 74.9999 180 63.8071 180 49.9999C180 36.1928 191.193 24.9999 205 24.9999C213.766 24.9999 221.478 29.5113 225.941 36.339L217.688 42.1453C215.03 37.9418 210.341 35.1503 205 35.1503C196.716 35.1503 190 41.8661 190 50.1503C190 58.4346 196.716 65.1503 205 65.1503C210.14 65.1503 214.676 62.5653 217.379 58.6244L226.011 63.5537Z" fill="#FFFBF3"/>
<circle cx="221.7" cy="61.1504" r="5" fill="#FFFBF3"/>
<circle cx="221.75" cy="39.1504" r="5" fill="#FFFBF3"/>
<path fill-rule="evenodd" clip-rule="evenodd" d="M145 75.3603C158.807 75.3603 170 64.1674 170 50.3603C170 36.5532 158.807 25.3603 145 25.3603C131.193 25.3603 120 36.5532 120 50.3603C120 64.1674 131.193 75.3603 145 75.3603ZM145 65.1503C153.284 65.1503 160 58.4346 160 50.1503C160 41.8661 153.284 35.1503 145 35.1503C136.716 35.1503 130 41.8661 130 50.1503C130 58.4346 136.716 65.1503 145 65.1503Z" fill="#FFFBF3"/>
<rect x="160" y="24.871" width="10" height="50" rx="5" fill="#FFFBF3"/>
<path d="M103.494 61.9817C99.1523 72.8354 80.6559 80.4328 67.134 66.3232C63.8792 62.9269 62.2228 58.9722 61.8184 54.9532M61.8184 54.9532C60.5429 42.2756 71.7262 28.9578 84.4999 30.5061C101.323 32.5453 94.7999 46.9532 92.9999 49.9532C91.1999 52.9532 79.9999 69.9532 61.8184 54.9532Z" stroke="#E56352" stroke-width="10" stroke-linecap="round"/>
<path d="M100.558 23.9084C99.0053 20.8342 94.3098 20.227 94.3098 20.227C94.3098 20.227 95.9325 22.8329 96.3752 25.7217C96.8178 28.6104 100.026 31.585 100.026 31.585C100.026 31.585 101.912 26.5909 100.558 23.9084Z" fill="#358157" stroke="#358157" stroke-width="5"/>
<path d="M107.622 37.2851C110.023 37.5525 113.315 36.3554 113.315 36.3554C113.315 36.3554 109.917 33.5998 107.961 33.6605C106.246 33.7138 104.11 35.7377 104.11 35.7377C104.11 35.7377 105.305 37.0272 107.622 37.2851Z" fill="#358157" stroke="#358157" stroke-width="5"/>
<path fill-rule="evenodd" clip-rule="evenodd" d="M25 75.8495C38.8071 75.8495 50 64.6567 50 50.8495C50 37.0424 38.8071 25.8495 25 25.8495C11.1929 25.8495 0 37.0424 0 50.8495C0 64.6567 11.1929 75.8495 25 75.8495ZM25 64.9999C33.2843 64.9999 40 58.2842 40 49.9999C40 41.7157 33.2843 34.9999 25 34.9999C16.7157 34.9999 10 41.7157 10 49.9999C10 58.2842 16.7157 64.9999 25 64.9999Z" fill="#FFFBF3"/>
<rect y="25.3603" width="10" height="75" rx="5" fill="#FFFBF3"/>
</svg>
