<svg width="82" height="82" viewBox="0 0 82 82" fill="none" xmlns="http://www.w3.org/2000/svg">
<path d="M58.5 52.5C54.5 62.5 37.4584 69.4999 25 56.5C12.5417 43.5 25.5001 21.6213 41 23.5C56.5 25.3788 53.0833 35 51 37.5C48.9167 40 45.5 42.5 42.5 46.5C39.5 50.5 38.5 55.5 41 63.4771" stroke="#FA725B" stroke-width="10" stroke-linecap="round"/>
<path d="M55.7947 17.4212C54.3645 14.5888 50.0383 14.0294 50.0383 14.0294C50.0383 14.0294 51.5334 16.4303 51.9412 19.0919C52.349 21.7534 55.3051 24.4941 55.3051 24.4941C55.3051 24.4941 57.0427 19.8928 55.7947 17.4212Z" stroke="#548135" stroke-width="5"/>
<path d="M62.3033 29.7458C64.516 29.9922 67.5489 28.8893 67.5489 28.8893C67.5489 28.8893 64.4178 26.3504 62.6159 26.4063C61.0355 26.4554 59.068 28.3201 59.068 28.3201C59.068 28.3201 60.1686 29.5082 62.3033 29.7458Z" stroke="#548135" stroke-width="5"/>
</svg>
