<svg width="330" height="101" viewBox="0 0 330 101" fill="none" xmlns="http://www.w3.org/2000/svg">
<rect x="320" y="25.6384" width="10" height="50" rx="5" fill="#FFFBF3"/>
<circle cx="325" cy="10.6384" r="5" fill="#FFFBF3"/>
<rect x="300" y="25.6384" width="10" height="50" rx="5" fill="#FFFBF3"/>
<circle cx="305" cy="10.6384" r="5" fill="#FFFBF3"/>
<path fill-rule="evenodd" clip-rule="evenodd" d="M285 65.4905C288.14 61.3118 290 56.1172 290 50.488C290 36.6809 278.807 25.488 265 25.488C251.193 25.488 240 36.6809 240 50.488C240 56.1172 241.86 61.3118 245 65.4905V50.488H250.001C250.081 42.273 256.766 35.6384 265 35.6384C273.234 35.6384 279.919 42.273 279.999 50.488H285V65.4905Z" fill="#FFFBF3"/>
<rect x="240" y="0.488037" width="10" height="75" rx="5" fill="#FFFBF3"/>
<rect x="280" y="46.6384" width="10" height="29" rx="5" fill="#FFFBF3"/>
<path fill-rule="evenodd" clip-rule="evenodd" d="M226.011 64.0418C221.558 70.9293 213.812 75.488 205 75.488C191.193 75.488 180 64.2952 180 50.488C180 36.6809 191.193 25.488 205 25.488C213.766 25.488 221.478 29.9994 225.941 36.8271L217.688 42.6334C215.03 38.4299 210.341 35.6384 205 35.6384C196.716 35.6384 190 42.3542 190 50.6384C190 58.9227 196.716 65.6384 205 65.6384C210.14 65.6384 214.676 63.0534 217.379 59.1125L226.011 64.0418Z" fill="#FFFBF3"/>
<circle cx="221.7" cy="61.6384" r="5" fill="#FFFBF3"/>
<circle cx="221.75" cy="39.6384" r="5" fill="#FFFBF3"/>
<path fill-rule="evenodd" clip-rule="evenodd" d="M145 75.488C158.807 75.488 170 64.2952 170 50.488C170 36.6809 158.807 25.488 145 25.488C131.193 25.488 120 36.6809 120 50.488C120 64.2952 131.193 75.488 145 75.488ZM145 65.2781C153.284 65.2781 160 58.5623 160 50.2781C160 41.9938 153.284 35.2781 145 35.2781C136.716 35.2781 130 41.9938 130 50.2781C130 58.5623 136.716 65.2781 145 65.2781Z" fill="#FFFBF3"/>
<rect x="160" y="24.9988" width="10" height="50" rx="5" fill="#FFFBF3"/>
<path d="M107.35 66.016C108.729 63.6234 107.907 60.5661 105.514 59.1872C103.122 57.8083 100.065 58.63 98.6856 61.0225L107.35 66.016ZM69.7942 63.5192L65.5452 66.1547L69.7942 63.5192ZM95.4278 37.6398L91.1601 40.2449L95.4278 37.6398ZM88.8346 56.4155L85.8174 52.4285L88.8346 56.4155ZM98.6856 61.0225C96.3117 65.1414 91.6901 67.4314 86.5861 67.4198C81.4771 67.4082 76.6461 65.0802 74.0432 60.8837L65.5452 66.1547C70.2664 73.7665 78.6102 77.4018 86.5635 77.4198C94.5217 77.4378 102.85 73.8235 107.35 66.016L98.6856 61.0225ZM74.0432 60.8837C71.1639 56.2415 70.7948 52.261 71.5372 49.0859C72.3039 45.8071 74.3746 42.9018 77.1526 40.7834C79.9621 38.6411 83.1704 37.552 85.8151 37.5536C88.3276 37.5551 90.085 38.4837 91.1601 40.2449L99.6955 35.0347C96.4674 29.7464 91.1147 27.5568 85.8212 27.5536C80.6599 27.5504 75.3664 29.5699 71.089 32.8315C66.7802 36.1171 63.1791 40.9111 61.7999 46.8089C60.3965 52.8103 61.4075 59.4838 65.5452 66.1547L74.0432 60.8837ZM91.1601 40.2449C91.6951 41.1214 91.977 42.8884 91.0006 45.5187C90.057 48.0606 88.1763 50.6434 85.8174 52.4285L91.8518 60.4026C95.7235 57.4726 98.7665 53.3332 100.375 48.9988C101.952 44.7528 102.415 39.4894 99.6955 35.0347L91.1601 40.2449ZM85.8174 52.4285C84.7035 53.2714 82.7868 54.2064 80.4918 54.8134C78.2011 55.4194 75.9882 55.578 74.3088 55.284C72.6763 54.9982 72.0463 54.4075 71.7596 53.8949C71.4124 53.2742 70.8739 51.5292 71.968 47.6046L62.3352 44.9193C60.8716 50.1698 60.8885 54.9445 63.0322 58.7768C65.2363 62.717 69.0326 64.5124 72.5842 65.1342C76.0888 65.7478 79.8177 65.3357 83.049 64.4809C86.2759 63.6273 89.4612 62.2117 91.8518 60.4026L85.8174 52.4285Z" fill="#E56352"/>
<path d="M98.7732 25.4205C99.9351 28.3303 98.7732 34.2226 98.7732 34.2226C98.7732 34.2226 92.69 32.2069 92.1009 26.8221C91.665 22.8372 87.4312 17.7316 87.4312 17.7316C87.4312 17.7316 96.6208 20.0304 98.7732 25.4205Z" fill="#358157"/>
<path d="M105.02 35.8263C101.868 34.1091 99.6396 34.5996 99.6396 34.5996C99.6396 34.5996 100.947 38.7543 104.028 39.2878C107.109 39.8214 109.383 39.2878 109.383 39.2878C109.383 39.2878 106.277 36.511 105.02 35.8263Z" fill="#358157" stroke="#358157" stroke-width="2"/>
<path fill-rule="evenodd" clip-rule="evenodd" d="M25 76.3376C38.8071 76.3376 50 65.1448 50 51.3376C50 37.5305 38.8071 26.3376 25 26.3376C11.1929 26.3376 0 37.5305 0 51.3376C0 65.1448 11.1929 76.3376 25 76.3376ZM25 65.488C33.2843 65.488 40 58.7723 40 50.488C40 42.2038 33.2843 35.488 25 35.488C16.7157 35.488 10 42.2038 10 50.488C10 58.7723 16.7157 65.488 25 65.488Z" fill="#FFFBF3"/>
<rect y="25.8484" width="10" height="75" rx="5" fill="#FFFBF3"/>
</svg>
