<svg width="330" height="101" viewBox="0 0 330 101" fill="none" xmlns="http://www.w3.org/2000/svg">
<rect x="320" y="25.1971" width="10" height="50" rx="5" fill="#514845"/>
<circle cx="325" cy="10.1971" r="5" fill="#514845"/>
<rect x="300" y="25.1971" width="10" height="50" rx="5" fill="#514845"/>
<circle cx="305" cy="10.1971" r="5" fill="#514845"/>
<circle cx="265" cy="50.0468" r="25" fill="#514845"/>
<circle cx="265" cy="50.1971" r="15" fill="#FFFBF3"/>
<rect x="245" y="50.0468" width="40" height="25" fill="#FFFBF3"/>
<rect x="240" y="0.0467529" width="10" height="75" rx="5" fill="#514845"/>
<rect x="280" y="46.1971" width="10" height="29" rx="5" fill="#514845"/>
<circle cx="205" cy="50.0467" r="25" fill="#514845"/>
<circle cx="205" cy="50.1971" r="15" fill="#FFFBF3"/>
<rect x="218" y="44.1541" width="12" height="12" fill="#FFFBF3"/>
<rect x="222.571" y="47.8175" width="12" height="12" transform="rotate(29.7284 222.571 47.8175)" fill="#FFFBF3"/>
<rect x="217.031" y="42.6541" width="12.8754" height="12" transform="rotate(-35.1275 217.031 42.6541)" fill="#FFFBF3"/>
<circle cx="221.7" cy="61.1971" r="5" fill="#514845"/>
<circle cx="221.75" cy="39.1971" r="5" fill="#514845"/>
<circle cx="145" cy="50.407" r="25" fill="#514845"/>
<circle cx="145" cy="50.1971" r="15" fill="#FFFBF3"/>
<rect x="160" y="24.9178" width="10" height="50" rx="5" fill="#514845"/>
<path d="M103.494 62.0285C99.1524 72.8821 80.6561 80.4796 67.1342 66.3699C63.8794 62.9736 62.2229 59.019 61.8186 55M61.8186 55C60.543 42.3224 71.7264 29.0046 84.5 30.5528C101.323 32.592 94.8 47 93 50C91.2 53 80 70 61.8186 55Z" stroke="#E56352" stroke-width="10" stroke-linecap="round"/>
<path d="M100.558 23.9551C99.0054 20.8809 94.3098 20.2738 94.3098 20.2738C94.3098 20.2738 95.9326 22.8796 96.3752 25.7684C96.8178 28.6571 100.026 31.6318 100.026 31.6318C100.026 31.6318 101.912 26.6377 100.558 23.9551Z" fill="#358157" stroke="#358157" stroke-width="5"/>
<path d="M107.622 37.3318C110.023 37.5993 113.315 36.4022 113.315 36.4022C113.315 36.4022 109.917 33.6466 107.961 33.7073C106.246 33.7605 104.11 35.7844 104.11 35.7844C104.11 35.7844 105.305 37.074 107.622 37.3318Z" fill="#358157" stroke="#358157" stroke-width="5"/>
<circle cx="25" cy="50.8963" r="25" fill="#514845"/>
<circle cx="25" cy="50.0467" r="15" fill="#FFFBF3"/>
<rect y="25.407" width="10" height="75" rx="5" fill="#514845"/>
</svg>
