<svg width="24" height="25" viewBox="0 0 24 25" fill="none" xmlns="http://www.w3.org/2000/svg">
<path d="M20.6633 18.7837C20.6633 18.7837 19.5047 19.9217 19.2207 20.2554C18.7582 20.749 18.2132 20.982 17.4988 20.982C17.4301 20.982 17.3568 20.982 17.2881 20.9775C15.9279 20.8906 14.6639 20.3605 13.7159 19.908C11.1238 18.6557 8.84771 16.8779 6.95629 14.6247C5.39461 12.7463 4.35044 11.0096 3.65891 9.14486C3.233 8.00685 3.07729 7.1202 3.14598 6.28383C3.19178 5.7491 3.39787 5.30578 3.77798 4.92644L5.33966 3.36795C5.56406 3.15772 5.80221 3.04346 6.03577 3.04346C6.32429 3.04346 6.55786 3.21713 6.70441 3.36338C6.70899 3.36795 6.71357 3.37252 6.71815 3.37709C6.99751 3.6376 7.26313 3.90725 7.54249 4.19518C7.68446 4.34143 7.83101 4.48768 7.97756 4.63851L9.22782 5.88621C9.71327 6.37067 9.71327 6.81856 9.22782 7.30301C9.09501 7.43555 8.96678 7.56809 8.83397 7.69606C8.44927 8.08911 8.75147 7.78753 8.35304 8.14402C8.34388 8.15316 8.33472 8.15773 8.33014 8.16687C7.93629 8.55992 8.00956 8.94382 8.092 9.20433C8.09658 9.21805 8.10116 9.23176 8.10573 9.24547C8.43089 10.0316 8.88886 10.772 9.58498 11.654L9.58956 11.6586C10.8536 13.2125 12.1862 14.4237 13.6563 15.3514C13.8441 15.4703 14.0364 15.5662 14.2196 15.6577C14.3845 15.7399 14.5402 15.8176 14.673 15.8999C14.6913 15.909 14.7097 15.9227 14.728 15.9319C14.8837 16.0096 15.0302 16.0461 15.1814 16.0461C15.5615 16.0461 15.7996 15.8085 15.8775 15.7308L16.7752 14.8349C16.9309 14.6795 17.1782 14.4922 17.4667 14.4922C17.7506 14.4922 17.9842 14.6704 18.1262 14.8258C18.1308 14.8304 18.1308 14.8304 18.1353 14.8349L20.6587 17.3532C21.1305 17.8194 20.6633 18.7837 20.6633 18.7837Z" stroke="#514845" stroke-width="2" stroke-linecap="round" stroke-linejoin="round"/>
</svg>
